<svg width="32" height="32" viewBox="0 0 32 32" fill="none" xmlns="http://www.w3.org/2000/svg">
  <circle cx="16" cy="16" r="14" fill="#1e40af"/>
  <path d="M16 2 C 24 2, 30 8, 30 16 C 30 24, 24 30, 16 30 C 8 30, 2 24, 2 16 C 2 8, 8 2, 16 2 Z" fill="none" stroke="#3b82f6" stroke-width="2" stroke-linecap="round"/>
  <path d="M16 6 C 22 6, 26 10, 26 16 C 26 22, 22 26, 16 26 C 10 26, 6 22, 6 16 C 6 10, 10 6, 16 6 Z" fill="none" stroke="#60a5fa" stroke-width="1.5" stroke-linecap="round"/>
  <path d="M16 10 C 20 10, 22 12, 22 16 C 22 20, 20 22, 16 22 C 12 22, 10 20, 10 16 C 10 12, 12 10, 16 10 Z" fill="none" stroke="#93c5fd" stroke-width="1" stroke-linecap="round"/>
</svg>
